<?xml version="1.0" encoding="UTF-8"?>
<svg xmlns="http://www.w3.org/2000/svg" width="592" height="451" viewBox="0 0 592 451" role="img" aria-label="repeat loop icon">
  <title>Repeat loop icon</title>
  <g fill="#000000">
    <path d="M 152 0 L 152 42 L 413 42 L 430 46 L 444 54 L 456 66 L 464 80 L 468 96 L 468 238 L 467 239 L 448 220 L 389 220 L 489 320 L 590 220 L 531 220 L 511 240 L 510 239 L 510 97 L 509 96 L 509 87 L 507 77 L 501 60 L 489 40 L 475 25 L 456 12 L 436 4 L 422 1 L 411 1 L 410 0 Z"/>
    <path d="M 1 230 L 60 230 L 80 210 L 81 211 L 81 361 L 82 362 L 83 372 L 90 392 L 96 403 L 104 414 L 117 427 L 135 439 L 152 446 L 171 450 L 438 450 L 438 408 L 172 408 L 161 405 L 151 400 L 142 393 L 131 380 L 126 370 L 123 359 L 123 351 L 122 350 L 122 213 L 123 212 L 141 230 L 201 230 L 101 130 Z"/>
  </g>
</svg>
